<svg id="visual" viewBox="0 0 900 600" width="900" height="600" xmlns="http://www.w3.org/2000/svg" xmlns:xlink="http://www.w3.org/1999/xlink" version="1.1"><g stroke-width="1" stroke-linejoin="bevel"><path d="M482 293L472 221L388 272Z" fill="#205a7a" stroke="#205a7a"></path><path d="M472 221L422 169L388 272Z" fill="#246688" stroke="#246688"></path><path d="M263 176L337 325L388 272Z" fill="#1d4e6b" stroke="#1d4e6b"></path><path d="M388 272L337 325L482 293Z" fill="#0c2435" stroke="#0c2435"></path><path d="M626 218L474 127L472 221Z" fill="#112e42" stroke="#112e42"></path><path d="M472 221L474 127L422 169Z" fill="#246688" stroke="#246688"></path><path d="M363 428L533 372L482 293Z" fill="#246688" stroke="#246688"></path><path d="M482 293L626 218L472 221Z" fill="#205a7a" stroke="#205a7a"></path><path d="M224 217L305 370L337 325Z" fill="#246688" stroke="#246688"></path><path d="M337 325L363 428L482 293Z" fill="#246688" stroke="#246688"></path><path d="M474 127L373 100L422 169Z" fill="#246688" stroke="#246688"></path><path d="M422 169L263 176L388 272Z" fill="#297ea6" stroke="#297ea6"></path><path d="M533 372L614 315L482 293Z" fill="#1d4e6b" stroke="#1d4e6b"></path><path d="M305 370L363 428L337 325Z" fill="#1d4e6b" stroke="#1d4e6b"></path><path d="M614 315L626 218L482 293Z" fill="#246688" stroke="#246688"></path><path d="M533 372L566 407L614 315Z" fill="#081a28" stroke="#081a28"></path><path d="M480 469L566 407L533 372Z" fill="#19435d" stroke="#19435d"></path><path d="M373 100L263 176L422 169Z" fill="#19435d" stroke="#19435d"></path><path d="M363 428L480 469L533 372Z" fill="#0c2435" stroke="#0c2435"></path><path d="M263 176L224 217L337 325Z" fill="#19435d" stroke="#19435d"></path><path d="M626 218L622 122L474 127Z" fill="#00101c" stroke="#00101c"></path><path d="M474 127L425 0L373 100Z" fill="#112e42" stroke="#112e42"></path><path d="M614 315L684 271L626 218Z" fill="#246688" stroke="#246688"></path><path d="M626 218L700 118L622 122Z" fill="#19435d" stroke="#19435d"></path><path d="M682 375L684 271L614 315Z" fill="#112e42" stroke="#112e42"></path><path d="M425 0L281 72L373 100Z" fill="#0c2435" stroke="#0c2435"></path><path d="M373 100L281 72L263 176Z" fill="#112e42" stroke="#112e42"></path><path d="M263 176L221 66L224 217Z" fill="#112e42" stroke="#112e42"></path><path d="M161 316L236 407L305 370Z" fill="#297ea6" stroke="#297ea6"></path><path d="M305 370L262 467L363 428Z" fill="#1d4e6b" stroke="#1d4e6b"></path><path d="M363 428L423 526L480 469Z" fill="#081a28" stroke="#081a28"></path><path d="M506 0L425 0L474 127Z" fill="#277297" stroke="#277297"></path><path d="M262 467L423 526L363 428Z" fill="#15384f" stroke="#15384f"></path><path d="M616 478L682 375L566 407Z" fill="#081a28" stroke="#081a28"></path><path d="M616 478L566 407L480 469Z" fill="#15384f" stroke="#15384f"></path><path d="M566 407L682 375L614 315Z" fill="#00101c" stroke="#00101c"></path><path d="M622 122L506 0L474 127Z" fill="#081a28" stroke="#081a28"></path><path d="M236 407L262 467L305 370Z" fill="#112e42" stroke="#112e42"></path><path d="M537 600L616 478L480 469Z" fill="#081a28" stroke="#081a28"></path><path d="M224 217L161 316L305 370Z" fill="#0c2435" stroke="#0c2435"></path><path d="M236 407L195 480L262 467Z" fill="#112e42" stroke="#112e42"></path><path d="M138 332L161 316L105 213Z" fill="#19435d" stroke="#19435d"></path><path d="M262 0L221 66L281 72Z" fill="#19435d" stroke="#19435d"></path><path d="M281 72L221 66L263 176Z" fill="#205a7a" stroke="#205a7a"></path><path d="M729 183L700 118L626 218Z" fill="#081a28" stroke="#081a28"></path><path d="M622 122L624 0L506 0Z" fill="#15384f" stroke="#15384f"></path><path d="M729 183L626 218L684 271Z" fill="#205a7a" stroke="#205a7a"></path><path d="M770 167L729 183L825 280Z" fill="#19435d" stroke="#19435d"></path><path d="M105 213L161 316L224 217Z" fill="#246688" stroke="#246688"></path><path d="M161 316L138 332L236 407Z" fill="#277297" stroke="#277297"></path><path d="M425 0L262 0L281 72Z" fill="#246688" stroke="#246688"></path><path d="M687 0L624 0L622 122Z" fill="#00101c" stroke="#00101c"></path><path d="M111 366L195 480L236 407Z" fill="#277297" stroke="#277297"></path><path d="M282 600L425 600L423 526Z" fill="#00101c" stroke="#00101c"></path><path d="M262 0L229 0L221 66Z" fill="#277297" stroke="#277297"></path><path d="M221 66L105 213L224 217Z" fill="#0c2435" stroke="#0c2435"></path><path d="M282 600L423 526L262 467Z" fill="#205a7a" stroke="#205a7a"></path><path d="M423 526L537 600L480 469Z" fill="#00101c" stroke="#00101c"></path><path d="M69 86L105 213L221 66Z" fill="#19435d" stroke="#19435d"></path><path d="M729 183L770 167L700 118Z" fill="#205a7a" stroke="#205a7a"></path><path d="M700 118L687 0L622 122Z" fill="#205a7a" stroke="#205a7a"></path><path d="M825 280L729 183L684 271Z" fill="#297ea6" stroke="#297ea6"></path><path d="M0 264L111 366L138 332Z" fill="#00101c" stroke="#00101c"></path><path d="M138 332L111 366L236 407Z" fill="#205a7a" stroke="#205a7a"></path><path d="M616 478L703 490L682 375Z" fill="#112e42" stroke="#112e42"></path><path d="M682 375L825 280L684 271Z" fill="#0c2435" stroke="#0c2435"></path><path d="M622 600L703 490L616 478Z" fill="#246688" stroke="#246688"></path><path d="M425 600L537 600L423 526Z" fill="#297ea6" stroke="#297ea6"></path><path d="M765 0L687 0L700 118Z" fill="#277297" stroke="#277297"></path><path d="M209 600L262 467L195 480Z" fill="#297ea6" stroke="#297ea6"></path><path d="M209 600L282 600L262 467Z" fill="#0c2435" stroke="#0c2435"></path><path d="M703 490L773 434L682 375Z" fill="#15384f" stroke="#15384f"></path><path d="M537 600L622 600L616 478Z" fill="#277297" stroke="#277297"></path><path d="M703 490L834 508L773 434Z" fill="#297ea6" stroke="#297ea6"></path><path d="M773 434L825 280L682 375Z" fill="#00101c" stroke="#00101c"></path><path d="M0 409L93 477L111 366Z" fill="#297ea6" stroke="#297ea6"></path><path d="M111 366L93 477L195 480Z" fill="#205a7a" stroke="#205a7a"></path><path d="M129 600L209 600L195 480Z" fill="#15384f" stroke="#15384f"></path><path d="M79 0L69 86L221 66Z" fill="#081a28" stroke="#081a28"></path><path d="M105 213L0 264L138 332Z" fill="#0c2435" stroke="#0c2435"></path><path d="M831 85L700 118L770 167Z" fill="#0c2435" stroke="#0c2435"></path><path d="M831 85L765 0L700 118Z" fill="#205a7a" stroke="#205a7a"></path><path d="M900 139L831 85L770 167Z" fill="#205a7a" stroke="#205a7a"></path><path d="M622 600L713 600L703 490Z" fill="#15384f" stroke="#15384f"></path><path d="M0 177L0 264L105 213Z" fill="#081a28" stroke="#081a28"></path><path d="M229 0L79 0L221 66Z" fill="#277297" stroke="#277297"></path><path d="M69 86L0 177L105 213Z" fill="#081a28" stroke="#081a28"></path><path d="M0 126L0 177L69 86Z" fill="#112e42" stroke="#112e42"></path><path d="M93 477L129 600L195 480Z" fill="#19435d" stroke="#19435d"></path><path d="M0 600L129 600L93 477Z" fill="#112e42" stroke="#112e42"></path><path d="M0 0L0 126L69 86Z" fill="#1d4e6b" stroke="#1d4e6b"></path><path d="M900 400L900 275L825 280Z" fill="#081a28" stroke="#081a28"></path><path d="M825 280L900 210L770 167Z" fill="#205a7a" stroke="#205a7a"></path><path d="M900 400L825 280L773 434Z" fill="#15384f" stroke="#15384f"></path><path d="M0 264L0 409L111 366Z" fill="#0c2435" stroke="#0c2435"></path><path d="M900 275L900 210L825 280Z" fill="#00101c" stroke="#00101c"></path><path d="M713 600L834 508L703 490Z" fill="#081a28" stroke="#081a28"></path><path d="M900 210L900 139L770 167Z" fill="#19435d" stroke="#19435d"></path><path d="M831 85L900 0L765 0Z" fill="#112e42" stroke="#112e42"></path><path d="M834 508L900 400L773 434Z" fill="#205a7a" stroke="#205a7a"></path><path d="M0 409L0 486L93 477Z" fill="#00101c" stroke="#00101c"></path><path d="M900 600L900 480L834 508Z" fill="#277297" stroke="#277297"></path><path d="M834 508L900 480L900 400Z" fill="#297ea6" stroke="#297ea6"></path><path d="M79 0L0 0L69 86Z" fill="#00101c" stroke="#00101c"></path><path d="M713 600L825 600L834 508Z" fill="#1d4e6b" stroke="#1d4e6b"></path><path d="M900 139L900 0L831 85Z" fill="#15384f" stroke="#15384f"></path><path d="M0 486L0 600L93 477Z" fill="#00101c" stroke="#00101c"></path><path d="M825 600L900 600L834 508Z" fill="#297ea6" stroke="#297ea6"></path></g></svg>