<svg width="66" height="91" viewBox="0 0 66 91" fill="none" xmlns="http://www.w3.org/2000/svg">
<path fill-rule="evenodd" clip-rule="evenodd" d="M50.8374 26.5388C51.4916 26.8122 52.0657 26.8727 52.5569 26.7199C53.0545 26.5675 53.4195 26.2136 53.652 25.6573C53.8986 25.067 53.8706 24.4748 53.5692 23.8811L52.9044 23.6032L53.0561 23.2398L52.9082 23.1782L52.1829 24.9139L52.3308 24.9755L52.575 24.3916L53.1593 24.6356C53.3567 24.7184 53.4879 24.8485 53.5537 25.0266C53.6195 25.2047 53.6093 25.3975 53.5219 25.6059C53.3521 26.0117 52.9963 26.1712 52.4518 26.085C52.1984 26.0464 51.776 25.9035 51.1838 25.6562C50.64 25.4289 50.2649 25.2164 50.0565 25.0179C49.7124 24.6923 49.6341 24.3051 49.8225 23.8543C49.9488 23.5514 50.1431 23.3585 50.4052 23.2761C50.5943 23.2163 50.8764 23.2107 51.25 23.2595L51.3143 23.1059L50.2271 22.6518L50.1764 22.7728L50.2532 23.0961C49.965 23.3271 49.762 23.582 49.6459 23.86C49.4303 24.3765 49.439 24.8953 49.672 25.4164C49.9053 25.9372 50.2936 26.3115 50.8374 26.5388ZM51.6792 29.7573L51.8225 29.817L52.5588 28.0541L52.4155 27.9947L52.2245 28.4519L48.6275 26.9487L48.8188 26.4912L48.6702 26.4291L48.0958 27.8033L50.2479 29.5988L47.4946 29.2422L46.8925 30.6837L47.0411 30.7454L47.2321 30.2882L50.547 31.6734C50.7406 31.7543 50.7973 31.8836 50.7168 32.0606L50.6378 32.2489L50.7811 32.3087L51.2568 31.1704L51.1135 31.1107C51.1055 31.1303 51.09 31.1674 51.067 31.2222C51.0561 31.2486 51.0471 31.27 51.0402 31.2866C51.0327 31.3045 51.0275 31.3167 51.025 31.3232C50.98 31.431 50.9259 31.4949 50.8631 31.5145C50.7996 31.5346 50.7104 31.5202 50.5935 31.4714L47.3104 30.0999L51.5139 30.554L51.5627 30.4387L48.3151 27.7568L51.8906 29.2513L51.6792 29.7573ZM49.6534 34.6056L49.796 34.6653L50.533 32.9027L50.3897 32.843L50.1984 33.3006L46.6014 31.7974L46.7927 31.3398L46.6445 31.2778L46.0697 32.652L48.2221 34.4475L45.4684 34.0913L44.866 35.532L45.0142 35.5941L45.2056 35.1365L48.5205 36.5221C48.7145 36.603 48.7708 36.7319 48.6903 36.9089L48.612 37.0972L48.7546 37.157L49.2303 36.0187L49.0877 35.9594C49.0794 35.979 49.0639 36.0165 49.0412 36.0709L48.9988 36.1719C48.9538 36.2793 48.9002 36.3432 48.8366 36.3632C48.7738 36.3833 48.6835 36.3689 48.567 36.3201L45.2846 34.9482L49.4878 35.4027L49.5358 35.287L46.2882 32.6055L49.8644 34.0996L49.6534 34.6056ZM31.7936 40.1951C30.8581 40.1951 30.0995 40.9536 30.0995 41.8896C30.0995 42.8251 30.8581 43.5837 31.7936 43.5837C32.7296 43.5837 33.4881 42.8251 33.4881 41.8896C33.4881 40.9536 32.7296 40.1951 31.7936 40.1951ZM18.1117 41.8453C17.5142 41.8843 17.0619 42.4001 17.1005 42.9979C17.1394 43.5958 17.6564 44.0481 18.2535 44.0095C18.8502 43.9694 19.3028 43.454 19.2643 42.8557C19.2253 42.2586 18.7091 41.8056 18.1117 41.8453ZM12.754 29.4362C12.1565 29.4797 11.7073 29.9989 11.75 30.596C11.7939 31.1927 12.3131 31.6424 12.9098 31.5985C13.5073 31.555 13.9554 31.0366 13.9126 30.4395C13.8692 29.8424 13.35 29.3931 12.754 29.4362ZM8.03122 14.1985C7.4345 14.2416 6.98639 14.7612 7.02912 15.3576C7.07185 15.955 7.59181 16.4043 8.18854 16.3612C8.78564 16.3177 9.23451 15.7977 9.19178 15.2006C9.14791 14.6039 8.62871 14.155 8.03122 14.1985ZM42.1804 36.1889C42.1804 36.1889 49.6319 18.5787 49.9843 18.4656C51.2073 18.0719 52.2332 17.9093 53.0935 17.9093C57.2067 17.9093 57.5398 21.627 57.5398 21.627L48.9879 41.8162C48.9879 41.8162 45.1489 50.3965 42.8561 55.2157L42.8421 55.2444C42.8312 55.2679 42.8198 55.2916 42.8085 55.3153C42.7933 55.347 42.7782 55.3787 42.7639 55.4097L42.7631 55.4082L42.4432 56.068L36.5716 53.2361L35.9889 52.9551L32.0424 51.0518L28.3195 52.482L27.2819 52.8802L21.5252 55.0909L21.2968 54.701L21.2549 54.6284L21.2246 54.5766C19.2786 51.2481 17.7638 48.6237 17.7638 48.6237C11.5182 37.9477 4.96554 17.9264 4.46335 16.1082C3.9604 14.2893 4.09389 9.73556 7.30971 9.31694C7.48101 9.29463 7.64589 9.28404 7.80471 9.28404C10.6114 9.28404 11.3692 12.656 11.77 14.5578C12.0849 16.0509 13.6399 20.5253 15.527 25.955C16.18 27.8342 16.8729 29.8278 17.5679 31.8519C18.8672 35.6345 21.6848 41.4672 24.2616 46.5087L24.9736 47.8905L45.1205 0L35.2333 39.4376L35.7162 40.5864L39.7292 50.125L40.1958 49.1267C41.2683 46.7961 42.1671 44.6852 42.6035 43.2986C44.1857 38.2691 42.1804 36.1889 42.1804 36.1889ZM18.6416 0.000302523L31.4754 30.5067L28.2263 38.2293L18.6416 0.000302523ZM28.4753 21.4456C29.6948 21.2565 30.9443 21.1582 32.2171 21.1582C33.2695 21.1582 34.3064 21.2278 35.324 21.3578L38.3088 14.2648L38.3345 14.2028C36.3435 13.8133 34.2879 13.6046 32.1831 13.6046C29.8816 13.6046 27.6377 13.8507 25.4743 14.3136L25.5068 14.3911L28.4753 21.4456ZM42.0718 15.2367L40.2446 22.5233C42.2927 23.2411 44.2175 24.2213 45.9751 25.4302C46.7617 23.6192 47.4193 22.1229 47.934 20.9763C48.5012 19.7122 48.8453 18.9642 49.0809 18.5123C49.09 18.4949 49.0987 18.4786 49.107 18.462C46.9304 17.0961 44.5748 15.9896 42.0866 15.1773L42.0718 15.2367ZM56.7983 25.2952L53.3484 33.4384C54.5797 35.5871 55.4971 37.9388 56.0265 40.4324H57.4639H63.633C63.385 38.8793 63.0223 37.3648 62.558 35.8953H62.606C61.3641 31.9613 59.3784 28.3598 56.8183 25.2484L56.7983 25.2952ZM9.20925 64.4717L9.28715 64.5598L9.53144 64.5484C9.51744 64.787 9.6237 65.0347 9.84984 65.2915C10.0374 65.5029 10.262 65.6148 10.5248 65.6262C10.7877 65.6368 11.0285 65.5456 11.2479 65.352C11.5035 65.1266 11.5927 64.8551 11.5167 64.5375C11.4171 64.2985 11.3349 64.1008 11.2699 63.9442L11.1919 63.7566C11.0743 63.4733 11.0966 63.2612 11.2573 63.1186C11.3655 63.0237 11.4888 62.984 11.6283 63.0003C11.7671 63.0158 11.8873 63.0816 11.9887 63.1962C12.1195 63.344 12.1793 63.51 12.1675 63.6942C12.1562 63.878 12.0764 64.0542 11.9289 64.2232L12.0227 64.3284L12.6289 63.7933L12.5646 63.7207L12.3483 63.7127C12.3475 63.5146 12.2693 63.327 12.1135 63.15C11.9274 62.939 11.7119 62.8244 11.468 62.8074C11.2237 62.7908 10.996 62.8747 10.7861 63.06C10.5441 63.2737 10.4621 63.5354 10.5403 63.8455C10.6844 64.1896 10.7914 64.4467 10.8625 64.6188C10.9745 64.9001 10.9442 65.1176 10.7699 65.2707C10.6549 65.3732 10.5161 65.4163 10.3543 65.4012C10.1924 65.3853 10.0574 65.3165 9.94892 65.1932C9.65244 64.8581 9.63845 64.4649 9.90581 64.0137L9.82829 63.9252L9.20925 64.4717ZM7.17478 61.513L7.08138 61.5784L8.49945 63.5841L9.30832 63.0861L9.24706 62.9995C8.74109 63.2465 8.34517 63.1682 8.06004 62.7651L7.74201 62.3158L8.84017 61.5387L8.88895 61.6083C9.01374 61.7838 9.06631 61.9346 9.04626 62.0598C9.02698 62.185 8.93168 62.3052 8.76189 62.4206L8.82769 62.5136L9.809 61.8193L9.74358 61.7267C9.58627 61.8242 9.45467 61.8635 9.34992 61.8454C9.24404 61.8269 9.14156 61.7467 9.04097 61.6045L8.94341 61.4665L9.99089 60.7257L10.3838 61.2808C10.4999 61.4457 10.5366 61.603 10.4946 61.7527C10.4651 61.8567 10.377 61.9989 10.231 62.1797L10.29 62.2625L10.8822 61.7751L9.52274 59.8525L9.43009 59.9183L9.63543 60.2087L7.38012 61.8038L7.17478 61.513ZM6.76033 54.7418C6.68054 54.9078 6.54024 55.0405 6.33944 55.1407L6.38595 55.2738L7.1502 55.0084L7.11768 54.9165L6.92066 54.8276C6.99592 54.6438 6.9944 54.4404 6.91688 54.218C6.82461 53.9522 6.66881 53.7646 6.44948 53.6561C6.23016 53.5476 5.98776 53.5393 5.72343 53.6311C5.41826 53.737 5.24318 53.9484 5.19818 54.2646C5.20044 54.6374 5.20196 54.9165 5.20271 55.1022C5.19969 55.4051 5.08889 55.5945 4.86956 55.6705C4.72397 55.7216 4.57914 55.7087 4.43506 55.6331C4.29136 55.5578 4.19229 55.4421 4.13897 55.2875C3.99224 54.8651 4.12876 54.4956 4.54737 54.1795L4.50842 54.0679L3.72829 54.3387L3.76762 54.4499L3.99716 54.5323C3.89392 54.7475 3.89846 55.0171 4.0104 55.34C4.10304 55.607 4.26905 55.7957 4.50767 55.9057C4.74704 56.0158 5.00456 56.0222 5.28099 55.9265C5.60204 55.815 5.78847 55.5979 5.83839 55.2757L5.83696 54.9936C5.83574 54.755 5.83478 54.5669 5.83423 54.4291C5.83347 54.1231 5.93368 53.9348 6.13751 53.8641C6.27289 53.8168 6.40222 53.827 6.52474 53.8951C6.64726 53.9628 6.73386 54.0687 6.78377 54.2135C6.84881 54.3996 6.84087 54.5758 6.76033 54.7418ZM3.1569 52.1442L3.45527 53.458L3.56607 53.4326L3.49649 53.1263L6.07284 51.4821L6.04108 51.3448L3.31422 50.9947C3.17959 50.9784 3.09678 50.9606 3.0635 50.9417C3.01283 50.9107 2.97577 50.8396 2.95232 50.7288L2.92169 50.5976L2.81127 50.6233L3.01774 51.5332L3.12854 51.5078C3.10737 51.4435 3.0911 51.3876 3.08052 51.3403C3.05026 51.2102 3.06312 51.1387 3.11682 51.1266C3.19585 51.1085 3.30363 51.1108 3.44052 51.1334C3.56455 51.1535 3.67384 51.172 3.76913 51.1883L3.97712 52.1049L3.35543 52.5065L3.2677 52.1193L3.1569 52.1442ZM2.64564 48.2973L2.53257 48.3113L2.70841 49.7547L2.82148 49.7415L2.77194 49.3387L5.50599 49.0063L5.51885 49.1092C5.55137 49.3803 5.51356 49.5883 5.40351 49.7339C5.29423 49.8787 5.10137 49.9786 4.8238 50.0315L4.84006 50.1631L5.74536 49.9653L5.43225 47.3897L4.50918 47.4393L4.52393 47.5625C4.80452 47.5478 5.01591 47.5981 5.15696 47.7127C5.29876 47.8276 5.38574 48.0167 5.41826 48.281L5.42998 48.3778L2.69593 48.7102L2.64564 48.2973ZM3.55699 45.8972L2.80446 45.994C2.53484 46.0601 2.40249 46.2458 2.40778 46.5483C2.40929 46.6629 2.44484 46.8365 2.51329 47.0683L2.63543 47.0664C2.59383 46.9859 2.57266 46.911 2.5719 46.8422C2.56963 46.7261 2.68194 46.6557 2.9077 46.6296C3.23934 46.593 3.45867 46.5483 3.56607 46.4969C3.81338 46.377 3.95897 46.143 4.00094 45.7943C4.06598 46.3785 4.29552 46.6671 4.68994 46.6606C5.17662 46.6531 5.41524 46.332 5.40503 45.6994L5.37969 44.1474L5.26624 44.1497L5.27192 44.5074L2.50988 44.5521L2.50383 44.1947L2.39001 44.1962L2.41308 45.5988L2.5269 45.5973L2.52009 45.179L3.94913 45.156L3.95216 45.3193C3.95745 45.6336 3.82586 45.8261 3.55699 45.8972ZM2.86875 40.78L2.75568 40.7667L2.48039 43.2074L3.41518 43.3734L3.4269 43.2686C2.88501 43.1155 2.6411 42.794 2.69669 42.3032L2.75871 41.7568L4.09472 41.9073L4.08603 41.9916C4.06145 42.2056 4.00019 42.3527 3.90262 42.4333C3.8043 42.5134 3.6538 42.5407 3.44997 42.5131L3.43674 42.6265L4.6317 42.7615L4.64418 42.6481C4.46191 42.6163 4.33788 42.5588 4.27132 42.4749C4.20552 42.3909 4.18208 42.2627 4.20098 42.0903L4.22027 41.9212L5.49503 42.0657L5.41902 42.7418C5.39595 42.9419 5.31843 43.0837 5.18721 43.1676C5.09607 43.2251 4.93611 43.2731 4.70695 43.3113L4.69523 43.4116L5.4625 43.4426L5.72683 41.1026L5.61414 41.0901L5.5733 41.4433L2.82867 41.1336L2.86875 40.78ZM3.62052 37.3668L3.50972 37.3407L3.17505 38.7754C3.09186 39.1331 3.09262 39.422 3.17808 39.6433C3.26316 39.8641 3.42993 40.0033 3.678 40.0615C4.11401 40.1628 4.43657 39.9227 4.64721 39.3419C4.63246 39.5873 4.65326 39.7779 4.70922 39.9133C4.78372 40.0929 4.9278 40.2082 5.14145 40.2581C5.38952 40.3156 5.60204 40.2543 5.7794 40.0728C5.92272 39.9254 6.02557 39.7181 6.08759 39.4523L6.42112 38.0195L6.31032 37.9937L6.22864 38.3443L3.53846 37.7169L3.62052 37.3668ZM4.28531 35.3887L4.17754 35.3523L3.75136 36.6214L3.85913 36.6577L3.97069 36.3242L6.58978 37.2034L6.47747 37.5366L6.58524 37.5732L7.01142 36.3042L6.90365 36.2679L6.79058 36.6052L4.17149 35.726L4.28531 35.3887ZM5.48557 32.5079L5.3812 32.4625L4.47363 34.5386L5.29801 35.0029L5.34792 34.8891C5.13086 34.7477 4.9849 34.5786 4.90927 34.3812C4.83401 34.1842 4.84082 33.9838 4.92931 33.7804L5.09343 33.4049L7.62441 34.5113L7.48033 34.8415L7.5847 34.8868L8.12092 33.6601L8.01655 33.6147L7.87399 33.9411L5.34301 32.8342L5.48557 32.5079ZM14.4739 66.8586L15.0317 66.1185L13.1152 64.3688L12.4474 65.0087L12.5389 65.0922C12.742 64.8986 12.9348 64.7988 13.1171 64.7935C13.2997 64.7882 13.4888 64.8752 13.6851 65.0552L13.7577 65.1206L11.9009 67.1543L11.5935 66.8737L11.5167 66.9576L12.5915 67.9386L12.6675 67.8543L12.3683 67.5812L14.2251 65.5475L14.3011 65.6171C14.5026 65.8013 14.61 65.9843 14.6218 66.1658C14.6335 66.3473 14.5507 66.5485 14.376 66.7693L14.4739 66.8586ZM13.3368 69.9254C12.8781 69.9254 12.4186 69.9647 11.9614 70.0419C11.9347 70.0465 11.9084 70.0516 11.8823 70.0566L11.8389 70.0649C4.78221 64.2145 0.287476 55.3828 0.287476 45.5005C0.287476 38.1201 2.79501 31.3261 7.0031 25.9216C7.01747 25.9594 7.03146 25.9972 7.0447 26.0354C8.01504 28.7074 9.15026 31.7054 10.3845 34.7431C8.77891 37.9892 7.87399 41.6407 7.87399 45.5005C7.87399 53.2311 11.4975 60.1316 17.135 64.5938L14.8309 70.0717C14.3449 69.9746 13.8447 69.9254 13.3368 69.9254ZM56.9581 55.9022L57.0046 55.8027L57.7201 56.1087L57.6634 56.2304C57.1846 56.1109 56.8568 56.2421 56.6794 56.6237C56.5406 56.9213 56.6136 57.1989 56.8972 57.4553C57.0576 57.5997 57.3325 57.7627 57.7216 57.9435C58.071 58.1061 58.3501 58.2002 58.5569 58.2248C58.9071 58.2675 59.1457 58.1507 59.2735 57.8761C59.4426 57.5135 59.3257 57.1418 58.9249 56.7617L58.9786 56.6456L59.7224 57.0484L59.6812 57.1369L59.4551 57.1819C59.5216 57.4277 59.4955 57.6784 59.376 57.9351C59.1994 58.3156 58.9283 58.5655 58.5637 58.6854C58.1996 58.806 57.8161 58.7724 57.4145 58.5859C57.008 58.3969 56.7237 58.1072 56.5607 57.7177C56.3988 57.3282 56.4056 56.9436 56.5818 56.5643C56.701 56.3079 56.8708 56.14 57.0924 56.0606L56.9581 55.9022ZM57.6153 54.1453L57.7216 54.1846L57.6006 54.5147L60.1928 55.4677L60.3142 55.1376L60.4212 55.1773L59.9588 56.4335L59.8525 56.3942L59.975 56.0603L57.3828 55.1073L57.2599 55.4408L57.1529 55.4019L57.6153 54.1453ZM58.0748 52.6255L58.1841 52.655L58.0771 53.0509L60.1826 53.6204C60.3592 53.6684 60.5158 53.6507 60.6508 53.5667C60.7869 53.4835 60.8799 53.3478 60.9306 53.1594C60.9949 52.9208 60.9794 52.7287 60.8841 52.5835C60.7888 52.4379 60.6043 52.3283 60.3305 52.2545L58.7328 51.8219C58.605 51.7871 58.5191 51.7792 58.4749 51.7977C58.4314 51.8151 58.3958 51.8715 58.3709 51.9664C58.3669 51.9794 58.3621 51.9976 58.3558 52.0212C58.3513 52.0381 58.346 52.0578 58.3399 52.0802L58.2298 52.0503L58.4424 51.2634L58.5524 51.2933C58.5119 51.4343 58.5066 51.5266 58.5377 51.5704C58.5622 51.6071 58.6485 51.6446 58.7963 51.685L60.4878 52.1426C61.0327 52.2901 61.2157 52.6905 61.0395 53.344C60.9314 53.741 60.7839 53.9982 60.5948 54.1158C60.4057 54.2334 60.1301 54.2429 59.7682 54.1449L57.9167 53.6439L57.8229 53.9895L57.7137 53.9596L58.0748 52.6255ZM58.673 49.9357L60.6266 49.6884L58.8288 48.8402L58.9778 47.7942L59.0901 47.8101L59.0406 48.1587L61.7796 48.5482L61.8287 48.2L61.9376 48.2155L61.747 49.5575L61.6381 49.542L61.693 49.1563L58.9706 48.7695L61.6797 50.0302L61.6673 50.1187L58.6995 50.557L61.198 50.9128C61.2876 50.9253 61.3519 50.9193 61.3916 50.8943C61.4309 50.869 61.4566 50.816 61.4683 50.734C61.4699 50.7245 61.4736 50.6984 61.4797 50.6572L61.4852 50.6166L61.4876 50.5991L61.4914 50.5721L61.5999 50.5876L61.4767 51.454L61.3681 51.4385L61.3886 51.2951C61.4124 51.159 61.3504 51.0807 61.2025 51.0596L58.6787 50.7007L58.6292 51.0486L58.5172 51.0327L58.673 49.9357ZM57.7851 60.8378L57.6861 60.7815L57.8627 60.4722L55.4629 59.1044L55.2867 59.4133L55.1876 59.357L55.8509 58.1942L55.95 58.2505L55.7756 58.5561L58.175 59.9238L58.3493 59.6183L58.4484 59.6746L57.7851 60.8378ZM56.1995 63.2376L56.1058 63.1733L56.3013 62.8859L54.0168 61.3321L53.8168 61.6267L53.723 61.5624L55.045 59.6191L55.7703 60.0645L55.7076 60.1572C55.2568 59.956 54.9202 60.0191 54.6979 60.3466L54.3746 60.8216L55.4417 61.5484L55.5915 61.3276C55.6713 61.2107 55.6966 61.1007 55.6675 60.9974C55.6387 60.8934 55.5495 60.7819 55.3986 60.6628L55.4602 60.572L56.4865 61.2705L56.4245 61.3608C56.2328 61.2202 56.0642 61.1782 55.9216 61.2364C55.8115 61.2803 55.6837 61.4058 55.5378 61.6134L56.6514 62.3709L56.9063 61.9961L57.0001 62.06L56.1995 63.2376ZM54.3738 65.4695L54.2857 65.3961L54.5081 65.1288L52.3847 63.3632L52.1563 63.6362L52.0693 63.564L53.5721 61.7568L54.2509 62.2699L54.1794 62.3554C53.751 62.1126 53.4099 62.1429 53.1565 62.4473L52.7886 62.8897L53.7812 63.7148L53.9518 63.5095C54.0422 63.4013 54.0773 63.2943 54.0592 63.1884C54.0407 63.0822 53.9624 62.9627 53.8232 62.8296L53.8936 62.7449L54.8484 63.5386L54.7784 63.6233C54.5996 63.4641 54.4373 63.4066 54.2895 63.4509C54.1757 63.4842 54.0361 63.5965 53.8705 63.789L54.9062 64.6504L55.1963 64.3017L55.2836 64.3743L54.3738 65.4695ZM51.8485 67.4457C51.4473 67.426 51.0971 67.2612 50.798 66.9518C50.4864 66.6293 50.3291 66.2579 50.3261 65.8374C50.3227 65.4169 50.4754 65.0573 50.7848 64.7582C51.0831 64.4693 51.4295 64.3384 51.8232 64.3645C52.2168 64.391 52.5685 64.5645 52.8793 64.886C53.1947 65.2123 53.3543 65.5788 53.3581 65.9845C53.3619 66.3903 53.2076 66.7442 52.8949 67.0464C52.5988 67.333 52.2493 67.4657 51.8485 67.4457ZM56.5592 45.5003H56.1284H48.1498C47.3961 47.1676 46.453 49.2456 45.5262 51.2615H55.8686C54.5126 56.8256 51.2404 61.6486 46.7922 64.9851L48.9318 70.072C49.4177 69.9744 49.9176 69.9252 50.4259 69.9252C51.0642 69.9252 51.7037 70.0028 52.3367 70.1518L52.3413 70.1528C52.3617 70.1574 52.3825 70.162 52.4033 70.1676C59.5303 64.318 64.0787 55.4401 64.0787 45.5003H64.0371C64.0371 45.4983 64.037 45.4962 64.0368 45.494C64.0366 45.4917 64.0364 45.4894 64.0364 45.4871H56.5592V45.5003ZM6.00542 39.3016C5.96042 39.4963 5.87307 39.6162 5.74487 39.6612C5.64201 39.6998 5.48773 39.6952 5.28163 39.6468C5.05928 39.5946 4.90877 39.5216 4.83125 39.426C4.75298 39.3307 4.73293 39.2013 4.77037 39.0391L4.85848 38.6644L6.08748 38.951L6.00542 39.3016ZM37.6025 69.2409C39.5977 68.7887 41.5001 68.0914 43.2763 67.1823L45.8497 71.5273C44.705 72.4742 43.8761 73.7678 43.431 75.2857L43.4176 75.3303L43.4121 75.3496L43.4087 75.3621C39.9168 76.6751 36.1338 77.3958 32.1828 77.3958C31.363 77.3958 30.55 77.3644 29.7456 77.3036L29.7508 77.2794L29.7529 77.2698L29.7619 77.2268C30.0867 75.6393 30.674 73.7024 31.7377 71.9092C32.3144 72.4787 32.8714 72.9385 33.3003 73.1155C33.6875 73.2747 34.6987 73.6464 35.7254 73.6464C36.9082 73.6464 37.4898 73.1382 37.7681 72.7116C38.2813 71.9285 38.2276 70.791 37.6025 69.2409ZM5.13835 51.3541L3.88855 51.2002L4.07914 52.0378L5.13835 51.3541ZM4.6539 39.0206C4.60436 39.2354 4.50037 39.3663 4.34381 39.4131C4.22696 39.4483 4.05112 39.4385 3.81705 39.384C3.6102 39.336 3.46688 39.2683 3.38633 39.1813C3.30578 39.0947 3.27553 38.9703 3.29482 38.8077C3.2986 38.7816 3.33263 38.6202 3.39767 38.3237L4.74314 38.6376L4.6539 39.0206ZM52.2458 65.2726C51.9807 64.9981 51.7614 64.8211 51.5886 64.7409C51.3083 64.6142 51.0546 64.6615 50.8254 64.8831C50.5834 65.1172 50.5543 65.4038 50.7385 65.7434C50.8292 65.9105 51.0338 66.1594 51.353 66.4895C51.6313 66.7773 51.8601 66.9664 52.0374 67.0552C52.3381 67.2053 52.6047 67.1687 52.8365 66.9444C53.0618 66.7266 53.1121 66.4732 52.9866 66.1843C52.9083 66.007 52.7378 65.7816 52.4742 65.5093L52.2458 65.2726ZM23.5735 22.745C21.0236 23.7168 18.6787 25.1043 16.6211 26.8256L16.4559 26.3503L16.4551 26.348L16.4528 26.3412L16.4498 26.3328L16.4458 26.3211C16.3769 26.123 16.3083 25.9255 16.24 25.7294C15.4318 23.4049 14.6725 21.2191 14.0486 19.3756C14.043 19.3585 14.0373 19.3417 14.0317 19.3249L14.0315 19.3242L14.0314 19.3241L14.0314 19.324L14.0313 19.3238L14.0241 19.3023L14.0175 19.2826C16.3742 17.6463 18.9615 16.3198 21.7224 15.3619L21.7432 15.4462L23.5735 22.745ZM17.9127 71.5273C18.9817 72.4106 19.7747 73.5976 20.2387 74.987L20.2479 75.0148L20.2597 75.0491L20.2674 75.0713L20.2761 75.097C22.0769 75.8219 23.9582 76.388 25.9042 76.7764C25.9072 76.7611 25.9108 76.7457 25.9144 76.7303C25.917 76.7191 25.9196 76.7078 25.922 76.6966C26.5039 74.0318 27.6732 71.0954 28.3425 69.5333C25.5979 69.0923 23.0045 68.1919 20.6456 66.9119L17.9127 71.5273ZM5.16418 45.9059C5.08363 45.9841 4.93729 46.0257 4.72552 46.0291C4.51413 46.0322 4.36136 46.008 4.26682 45.9558C4.13825 45.8858 4.07321 45.7538 4.0698 45.5595L4.063 45.1541L5.27347 45.1344L5.27952 45.4944C5.28254 45.6903 5.24397 45.8276 5.16418 45.9059ZM26.3445 79.9969C26.4647 81.2338 27.049 81.716 27.5943 81.716C28.1313 81.716 28.6304 81.249 28.6119 80.5747C28.6119 80.5747 28.6089 75.5839 31.2 71.3557C30.4902 70.5975 29.8004 69.7588 29.3224 69.1579C28.5926 70.8017 26.0351 76.8318 26.3445 79.9969ZM53.4362 87.0358C52.1218 87.0358 50.7139 86.5574 49.4206 85.623C48.3875 84.8773 47.4716 83.8589 46.7781 82.6836C45.7049 80.8511 45.2602 78.8197 45.5136 76.9497C45.7552 75.147 46.6348 73.7222 47.9738 72.9364C48.7006 72.5113 49.5307 72.303 50.4023 72.303H50.4053C51.7221 72.303 53.1334 72.7806 54.4202 73.7104C55.4654 74.4599 56.3775 75.4757 57.0688 76.6551C58.142 78.4801 58.5863 80.5248 58.3326 82.3902C58.0894 84.1876 57.2121 85.6075 55.8678 86.3979C55.1387 86.8256 54.3079 87.0358 53.4362 87.0358ZM31.9314 68.0071C31.3684 68.0071 30.8915 67.5723 30.8499 67.002C30.8072 66.4045 31.2568 65.8846 31.8535 65.8418C31.8796 65.8399 31.9065 65.8388 31.9322 65.8388C32.4953 65.8388 32.9713 66.2741 33.0126 66.8447C33.0561 67.4422 32.6068 67.9614 32.0101 68.0041C31.9836 68.006 31.9575 68.0071 31.9314 68.0071ZM16.9853 82.6836C16.291 83.8589 15.3751 84.8773 14.3424 85.623C13.0495 86.5574 11.6409 87.0358 10.326 87.0358C9.45475 87.0358 8.62356 86.8256 7.89486 86.3979C6.55053 85.6075 5.67321 84.1876 5.43006 82.3902C5.17594 80.5248 5.62065 78.4801 6.69385 76.6551C7.38511 75.4757 8.29722 74.4599 9.34243 73.7104C10.6304 72.7806 12.0424 72.303 13.3603 72.303H13.3649C14.2346 72.303 15.0631 72.5121 15.7888 72.9364C17.1279 73.7222 18.0074 75.147 18.2491 76.9497C18.5013 78.8197 18.0577 80.8511 16.9853 82.6836ZM59.8104 90.426C60.2676 90.6513 60.7342 90.8087 61.216 90.9009C61.5718 90.9705 61.9144 91 62.2389 91C64.0276 91 65.2762 90.1038 65.3356 90.0535L64.9643 89.5498L64.5948 89.0389C64.5857 89.0465 63.6021 89.7438 62.2257 89.7438C61.9753 89.7438 61.7125 89.7203 61.4395 89.6663C60.3118 89.4431 59.2534 88.7356 58.2762 87.5701C58.1204 87.3845 57.9662 87.1875 57.8145 86.978C58.966 85.9036 59.7166 84.399 59.9609 82.6156C60.2661 80.3769 59.7499 77.9654 58.4831 75.8186C57.6818 74.4516 56.6108 73.2627 55.3834 72.3782C53.8087 71.2445 52.0753 70.6735 50.4258 70.6731C49.7546 70.6731 49.0981 70.768 48.4707 70.9575L48.4805 70.9284L42.5534 56.8384L42.1627 56.6501L37.8699 54.5766L37.6294 54.4602L37.6241 54.4579L37.6279 54.464C37.3855 54.9469 37.1019 55.5118 36.796 56.1188C35.5806 58.5348 34.0234 61.6103 33.4157 62.7928C31.4497 59.4011 29.5544 56.4867 29.5544 56.4867C29.5544 56.4867 28.66 54.8323 27.9007 53.4255L27.8817 53.3905L27.8519 53.3355L27.5441 53.4543L24.3105 54.7003L21.6827 55.713L15.2813 70.9284L15.2908 70.9575C14.6646 70.768 14.0073 70.6731 13.3365 70.6731C11.6874 70.6731 9.95391 71.2445 8.37928 72.3782C7.15179 73.2627 6.08086 74.4516 5.27955 75.8186C4.01274 77.9654 3.49732 80.3769 3.80135 82.6156C4.11749 84.9223 5.27728 86.7651 7.05952 87.8099C8.04764 88.3911 9.16508 88.677 10.3245 88.677C11.9812 88.677 13.7252 88.0935 15.304 86.9538C16.5228 86.0734 17.5983 84.8849 18.4003 83.5092C19.6634 81.3696 20.1833 78.9626 19.8759 76.7213C19.5813 74.5518 18.5353 72.8029 16.9274 71.7236L24.1384 59.5494C24.9655 60.9402 25.8401 62.3969 26.6399 63.7098C27.7929 65.6025 28.7901 67.1937 29.2632 67.8559C29.3017 67.9092 29.338 67.9591 29.3698 68C29.3698 68 32.3402 71.9112 33.5855 72.424C34.141 72.6528 34.9793 72.8986 35.7251 72.8986C37.0339 72.8986 38.0598 72.1441 36.785 69.2244C36.3449 68.2178 35.7829 67.0897 35.1677 65.9341L38.3532 62.7115C38.3532 62.7115 38.9851 61.8882 39.6272 61.0196C39.9358 60.6006 40.2466 60.1722 40.4905 59.8194L46.8348 71.7236C45.2269 72.8029 44.1813 74.5518 43.8864 76.7213C43.5793 78.9626 44.0993 81.3696 45.3623 83.5092C46.1644 84.8849 47.2406 86.0734 48.4582 86.9538C50.0374 88.0935 51.7811 88.677 53.4378 88.677C54.5976 88.677 55.715 88.3911 56.7031 87.8099C56.7246 87.7971 56.7458 87.7836 56.7669 87.7702L56.7672 87.77C56.7823 87.7604 56.7973 87.7507 56.8124 87.7415C56.9644 87.9487 57.1183 88.1461 57.2749 88.3336C58.063 89.2813 58.907 89.9824 59.8104 90.426Z" fill="#DADADA"/>
</svg>
